<svg xmlns="http://www.w3.org/2000/svg" xmlns:xlink="http://www.w3.org/1999/xlink" x="0" y="0" width="662" height="179" style="
        width:662px;
        height:179px;
        background: #FFF;
        fill: none;
">
        <svg xmlns="http://www.w3.org/2000/svg"><g><defs><pattern id=".2977526411307104" width="10" height="10" patternUnits="userSpaceOnUse"><path d="M 10 0 L 0 0 0 10" fill="none" stroke="lightgray" stroke-width="0.5"/></pattern></defs><rect width="100%" height="100%" fill="url(#.2977526411307104)" stroke="lightgray" stroke-width="0.5"/></g></svg>
        
        <svg xmlns="http://www.w3.org/2000/svg" class="role-diagram-draw-area"><g class="shapes-region" style="stroke: black; fill: none;"><g class="grouped-shape"><g class="composite-shape"><path class="real" d=" M387.1,85 C387.1,60.15 434.76,40 493.55,40 C552.34,40 600,60.15 600,85 C600,109.85 552.34,130 493.55,130 C434.76,130 387.1,109.85 387.1,85 Z" style="stroke-width: 1; stroke: rgb(0, 0, 0); fill: none; fill-opacity: 1;"/></g></g><g class="grouped-shape"><g class="composite-shape"><path class="real" d=" M110,85 C110,60.15 157.66,40 216.45,40 C275.24,40 322.9,60.15 322.9,85 C322.9,109.85 275.24,130 216.45,130 C157.66,130 110,109.85 110,85 Z" style="stroke-width: 1; stroke: rgb(0, 0, 0); fill: none; fill-opacity: 1;"/></g></g><g class="arrow-line"><path class="connection real" stroke-dasharray="" d="  M20,85 L108,85" style="stroke: rgb(0, 0, 0); stroke-width: 1; fill: none; fill-opacity: 1;"/><g stroke="#000" transform="matrix(-1,1.2246467991473532e-16,-1.2246467991473532e-16,-1,109.99999999999999,85.00000000000001)" style="stroke: rgb(0, 0, 0); stroke-width: 1;"><path d=" M10.93,-3.29 Q4.96,-0.45 0,0 Q4.96,0.45 10.93,3.29"/></g></g><g class="arrow-line"><path class="connection real" stroke-dasharray="" d="  M322.9,85 L385.1,85" style="stroke: rgb(0, 0, 0); stroke-width: 1; fill: none; fill-opacity: 1;"/><g stroke="#000" transform="matrix(-1,1.2246467991473532e-16,-1.2246467991473532e-16,-1,387.0967741935484,84.99999999999999)" style="stroke: rgb(0, 0, 0); stroke-width: 1;"><path d=" M10.93,-3.29 Q4.96,-0.45 0,0 Q4.96,0.45 10.93,3.29"/></g></g><g/></g><g/><g/><g/></svg>
        <svg xmlns="http://www.w3.org/2000/svg" xmlns:xlink="http://www.w3.org/1999/xlink" width="660" height="177" style="width:660px;height:177px;font-family:Asana-Math, Asana;background:#FFF;"><g><g><g><g transform="matrix(1,0,0,1,481.2734375,61.25)"><path transform="matrix(0.017,0,0,-0.017,0,0)" d="M582 103L237 692L75 692L70 664L105 662C150 660 184 615 185 606L92 102C80 40 74 32 38 28L7 25L2 -3L113 0C125 0 126 0 223 -3L228 25L186 28C146 31 137 39 137 72C137 80 138 91 140 102L220 566L558 -11L608 -11L702 542C723 655 725 659 762 662L799 664L802 691L589 692L584 664L631 662C657 661 667 654 667 638C667 631 584 116 582 103Z" stroke="rgb(0,0,0)" stroke-opacity="1" stroke-width="8" fill="rgb(0,0,0)" fill-opacity="1"></path></g></g><g><g><g><g><g transform="matrix(1,0,0,1,494.9921875,64.7515625)"><path transform="matrix(0.0119,0,0,-0.0119,0,0)" d="M16 23L16 -3C203 -3 203 0 239 0C275 0 275 -3 468 -3L468 82C353 77 307 81 122 77L304 270C401 373 431 428 431 503C431 618 353 689 226 689C154 689 105 669 56 619L39 483L68 483L81 529C97 587 133 612 200 612C286 612 341 558 341 473C341 398 299 324 186 204Z" stroke="rgb(0,0,0)" stroke-opacity="1" stroke-width="8" fill="rgb(0,0,0)" fill-opacity="1"></path></g></g></g></g></g></g></g><g><g><g><g transform="matrix(1,0,0,1,418.59375,98.75)"><path transform="matrix(0.017,0,0,-0.017,0,0)" d="M937 664L950 695C922 699 775 701 773 692L688 536L442 114L292 692C269 686 146 690 125 692L122 664L148 662C200 658 218 648 218 622C218 616 72 100 70 93C54 41 39 28 -16 23L-19 -3L20 -2C54 -1 79 0 93 0C107 0 133 -1 168 -2L203 -3L206 25L168 28C136 30 119 40 119 55C119 65 121 78 126 96L250 560L399 -18L422 -18L479 86L718 500L770 587L733 67C729 39 717 32 666 28L635 25L632 -3L679 -2C721 -1 751 0 766 0C782 0 812 -1 853 -2L899 -3L902 25L865 28C829 31 811 42 811 63L812 100L853 631C855 650 870 660 899 662ZM1343 646L1416 646C1494 646 1530 641 1533 629C1536 621 1538 602 1537 592L1533 528L1561 528L1588 692L1497 691C1409 690 1341 689 1306 689C1269 689 1205 690 1119 691L1024 692L1006 528L1035 528L1050 588C1055 610 1062 626 1068 633C1074 640 1112 646 1149 646L1261 646L1175 125C1159 34 1157 31 1117 28L1066 25L1062 -3L1119 -2C1159 -1 1188 0 1204 0C1223 0 1254 -1 1293 -2L1337 -3L1340 25L1281 28C1255 29 1245 37 1245 58C1245 67 1246 74 1249 93ZM2358 664L2361 692L2345 692L2254 689C2239 689 2218 689 2174 690L2111 692L2108 664L2156 662C2180 661 2191 653 2191 634C2191 629 2191 626 2190 622L2119 177C2071 119 2041 93 1990 68C1952 48 1915 39 1877 39C1792 39 1738 84 1738 154C1738 171 1740 187 1745 215L1833 692L1802 691C1775 690 1755 689 1744 689C1734 689 1714 690 1686 691L1654 692L1651 664L1703 662C1729 661 1737 656 1737 639C1737 630 1734 602 1730 581L1666 206C1662 185 1660 160 1660 144C1660 43 1727 -19 1839 -19C1883 -19 1924 -9 1972 15C2031 44 2063 69 2115 129C2107 83 2101 57 2088 2L2093 -3L2115 -3L2177 0C2181 0 2203 -1 2235 -2L2267 -3L2272 25L2212 29C2189 31 2180 37 2180 50C2180 65 2181 70 2186 106L2271 613C2277 651 2284 657 2322 661Z" stroke="rgb(0,0,0)" stroke-opacity="1" stroke-width="8" fill="rgb(0,0,0)" fill-opacity="1"></path></g></g><g><g transform="matrix(1,0,0,1,467.703125,98.75)"><path transform="matrix(0.017,0,0,-0.017,0,0)" d="M604 347L604 406L65 406L65 347ZM604 134L604 193L65 193L65 134Z" stroke="rgb(0,0,0)" stroke-opacity="1" stroke-width="8" fill="rgb(0,0,0)" fill-opacity="1"></path></g></g><g><g transform="matrix(1,0,0,1,484.15625,98.75)"><path transform="matrix(0.017,0,0,-0.017,0,0)" d="M529 181L529 106C529 46 518 32 469 30L407 27L407 -3C540 0 540 0 564 0C588 0 588 0 721 -3L721 27L673 30C624 33 613 46 613 106L613 181C672 181 693 180 721 177L721 248L613 245L614 697L534 667L251 204L251 181ZM529 245L314 245L529 597ZM1011 689C856 689 777 566 777 324C777 207 798 106 833 57C868 8 924 -20 986 -20C1137 -20 1213 110 1213 366C1213 585 1148 689 1011 689ZM993 654C1090 654 1129 556 1129 316C1129 103 1091 15 999 15C902 15 861 116 861 360C861 571 898 654 993 654ZM1510 689C1355 689 1276 566 1276 324C1276 207 1297 106 1332 57C1367 8 1423 -20 1485 -20C1636 -20 1712 110 1712 366C1712 585 1647 689 1510 689ZM1492 654C1589 654 1628 556 1628 316C1628 103 1590 15 1498 15C1401 15 1360 116 1360 360C1360 571 1397 654 1492 654Z" stroke="rgb(0,0,0)" stroke-opacity="1" stroke-width="8" fill="rgb(0,0,0)" fill-opacity="1"></path></g></g><g><g><g><g><text x="518.078125" y="85.25" style="white-space:pre;stroke:none;fill:rgb(0,0,0);fill-opacity:1;font-size:15px;font-family:Arial, Helvetica, sans-serif;font-weight:400;font-style:normal;dominant-baseline:text-before-edge;text-decoration:none solid rgb(0, 0, 0);">bytes</text></g></g></g></g></g></g><g><g><g><g transform="matrix(1,0,0,1,141.5,98.75)"><path transform="matrix(0.017,0,0,-0.017,0,0)" d="M937 664L950 695C922 699 775 701 773 692L688 536L442 114L292 692C269 686 146 690 125 692L122 664L148 662C200 658 218 648 218 622C218 616 72 100 70 93C54 41 39 28 -16 23L-19 -3L20 -2C54 -1 79 0 93 0C107 0 133 -1 168 -2L203 -3L206 25L168 28C136 30 119 40 119 55C119 65 121 78 126 96L250 560L399 -18L422 -18L479 86L718 500L770 587L733 67C729 39 717 32 666 28L635 25L632 -3L679 -2C721 -1 751 0 766 0C782 0 812 -1 853 -2L899 -3L902 25L865 28C829 31 811 42 811 63L812 100L853 631C855 650 870 660 899 662ZM1343 646L1416 646C1494 646 1530 641 1533 629C1536 621 1538 602 1537 592L1533 528L1561 528L1588 692L1497 691C1409 690 1341 689 1306 689C1269 689 1205 690 1119 691L1024 692L1006 528L1035 528L1050 588C1055 610 1062 626 1068 633C1074 640 1112 646 1149 646L1261 646L1175 125C1159 34 1157 31 1117 28L1066 25L1062 -3L1119 -2C1159 -1 1188 0 1204 0C1223 0 1254 -1 1293 -2L1337 -3L1340 25L1281 28C1255 29 1245 37 1245 58C1245 67 1246 74 1249 93ZM2358 664L2361 692L2345 692L2254 689C2239 689 2218 689 2174 690L2111 692L2108 664L2156 662C2180 661 2191 653 2191 634C2191 629 2191 626 2190 622L2119 177C2071 119 2041 93 1990 68C1952 48 1915 39 1877 39C1792 39 1738 84 1738 154C1738 171 1740 187 1745 215L1833 692L1802 691C1775 690 1755 689 1744 689C1734 689 1714 690 1686 691L1654 692L1651 664L1703 662C1729 661 1737 656 1737 639C1737 630 1734 602 1730 581L1666 206C1662 185 1660 160 1660 144C1660 43 1727 -19 1839 -19C1883 -19 1924 -9 1972 15C2031 44 2063 69 2115 129C2107 83 2101 57 2088 2L2093 -3L2115 -3L2177 0C2181 0 2203 -1 2235 -2L2267 -3L2272 25L2212 29C2189 31 2180 37 2180 50C2180 65 2181 70 2186 106L2271 613C2277 651 2284 657 2322 661Z" stroke="rgb(0,0,0)" stroke-opacity="1" stroke-width="8" fill="rgb(0,0,0)" fill-opacity="1"></path></g></g><g><g transform="matrix(1,0,0,1,190.609375,98.75)"><path transform="matrix(0.017,0,0,-0.017,0,0)" d="M604 347L604 406L65 406L65 347ZM604 134L604 193L65 193L65 134Z" stroke="rgb(0,0,0)" stroke-opacity="1" stroke-width="8" fill="rgb(0,0,0)" fill-opacity="1"></path></g></g><g><g transform="matrix(1,0,0,1,207.0625,98.75)"><path transform="matrix(0.017,0,0,-0.017,0,0)" d="M380 331C401 512 490 611 670 665L628 689C532 657 491 637 440 593C337 506 281 384 281 247C281 82 361 -20 490 -20C620 -20 717 83 717 219C717 334 648 409 542 409C465 409 433 370 380 331ZM504 349C580 349 631 283 631 184C631 80 580 13 503 13C418 13 372 86 372 220C372 255 376 274 387 291C409 325 456 349 504 349ZM764 23L764 -3C951 -3 951 0 987 0C1023 0 1023 -3 1216 -3L1216 82C1101 77 1055 81 870 77L1052 270C1149 373 1179 428 1179 503C1179 618 1101 689 974 689C902 689 853 669 804 619L787 483L816 483L829 529C845 587 881 612 948 612C1034 612 1089 558 1089 473C1089 398 1047 324 934 204ZM1510 689C1355 689 1276 566 1276 324C1276 207 1297 106 1332 57C1367 8 1423 -20 1485 -20C1636 -20 1712 110 1712 366C1712 585 1647 689 1510 689ZM1492 654C1589 654 1628 556 1628 316C1628 103 1590 15 1498 15C1401 15 1360 116 1360 360C1360 571 1397 654 1492 654Z" stroke="rgb(0,0,0)" stroke-opacity="1" stroke-width="8" fill="rgb(0,0,0)" fill-opacity="1"></path></g></g><g><g><g><g><text x="240.984375" y="85.25" style="white-space:pre;stroke:none;fill:rgb(0,0,0);fill-opacity:1;font-size:15px;font-family:Arial, Helvetica, sans-serif;font-weight:400;font-style:normal;dominant-baseline:text-before-edge;text-decoration:none solid rgb(0, 0, 0);">bytes</text></g></g></g></g></g></g><g><g><g><g transform="matrix(1,0,0,1,204.171875,61.25)"><path transform="matrix(0.017,0,0,-0.017,0,0)" d="M582 103L237 692L75 692L70 664L105 662C150 660 184 615 185 606L92 102C80 40 74 32 38 28L7 25L2 -3L113 0C125 0 126 0 223 -3L228 25L186 28C146 31 137 39 137 72C137 80 138 91 140 102L220 566L558 -11L608 -11L702 542C723 655 725 659 762 662L799 664L802 691L589 692L584 664L631 662C657 661 667 654 667 638C667 631 584 116 582 103Z" stroke="rgb(0,0,0)" stroke-opacity="1" stroke-width="8" fill="rgb(0,0,0)" fill-opacity="1"></path></g></g><g><g><g><g><g transform="matrix(1,0,0,1,217.890625,64.7515625)"><path transform="matrix(0.0119,0,0,-0.0119,0,0)" d="M418 -3L418 27L366 30C311 33 301 44 301 96L301 700L60 598L67 548L217 614L217 96C217 44 206 33 152 30L96 27L96 -3C250 0 250 0 261 0C292 0 402 -3 418 -3Z" stroke="rgb(0,0,0)" stroke-opacity="1" stroke-width="8" fill="rgb(0,0,0)" fill-opacity="1"></path></g></g></g></g></g></g></g><g><g><g><g transform="matrix(1,0,0,1,24,76.5)"><path transform="matrix(0.017,0,0,-0.017,0,0)" d="M418 -3L418 27L366 30C311 33 301 44 301 96L301 700L60 598L67 548L217 614L217 96C217 44 206 33 152 30L96 27L96 -3C250 0 250 0 261 0C292 0 402 -3 418 -3ZM762 689C607 689 528 566 528 324C528 207 549 106 584 57C619 8 675 -20 737 -20C888 -20 964 110 964 366C964 585 899 689 762 689ZM744 654C841 654 880 556 880 316C880 103 842 15 750 15C653 15 612 116 612 360C612 571 649 654 744 654ZM1261 689C1106 689 1027 566 1027 324C1027 207 1048 106 1083 57C1118 8 1174 -20 1236 -20C1387 -20 1463 110 1463 366C1463 585 1398 689 1261 689ZM1243 654C1340 654 1379 556 1379 316C1379 103 1341 15 1249 15C1152 15 1111 116 1111 360C1111 571 1148 654 1243 654ZM1760 689C1605 689 1526 566 1526 324C1526 207 1547 106 1582 57C1617 8 1673 -20 1735 -20C1886 -20 1962 110 1962 366C1962 585 1897 689 1760 689ZM1742 654C1839 654 1878 556 1878 316C1878 103 1840 15 1748 15C1651 15 1610 116 1610 360C1610 571 1647 654 1742 654Z" stroke="rgb(0,0,0)" stroke-opacity="1" stroke-width="8" fill="rgb(0,0,0)" fill-opacity="1"></path></g></g><g><g><g><g><text x="62.171875" y="63" style="white-space:pre;stroke:none;fill:rgb(0,0,0);fill-opacity:1;font-size:15px;font-family:Arial, Helvetica, sans-serif;font-weight:400;font-style:normal;dominant-baseline:text-before-edge;text-decoration:none solid rgb(0, 0, 0);">bytes</text></g></g></g></g></g></g></svg>
</svg>
